<?xml version="1.0" encoding="UTF-8"?>
<svg version="1.1" xmlns="http://www.w3.org/2000/svg" width="549" height="455">
<path d="M0 0 C0 0.66 0 1.32 0 2 C0.804375 2.12375 0.804375 2.12375 1.625 2.25 C4.87340691 3.27581271 7.28751859 4.96563894 10 7 C10 7.66 10 8.32 10 9 C10.54398438 9.22945312 11.08796875 9.45890625 11.6484375 9.6953125 C35.11326863 22.71400619 50.48840133 53.63199379 57.5625 78.2734375 C67.07308625 114.16612945 61.90814294 151.81423795 44.25 184.1875 C34.42782819 200.6410794 22.31414879 214.42567007 7 226 C6.30777344 226.5671875 5.61554688 227.134375 4.90234375 227.71875 C3 229 3 229 0 229 C0 229.66 0 230.32 0 231 C-31.53615791 248.19744442 -63.14397694 256.21331807 -99 250 C-99.87527344 249.855625 -100.75054687 249.71125 -101.65234375 249.5625 C-110.95005555 247.8747468 -120.6541915 245.68804012 -128.9765625 241.10546875 C-130.48406617 240.28187119 -132.02754506 239.52347986 -133.5859375 238.80078125 C-148.17704242 231.97464772 -160.68580324 222.37731641 -172 211 C-172.80953125 210.19046875 -173.6190625 209.3809375 -174.453125 208.546875 C-200.47019435 181.07430527 -210.94504597 144.56683744 -210.09326172 107.46142578 C-208.71539965 71.0959666 -191.46067472 38.50698876 -165.59765625 13.6953125 C-160.38378514 9 -160.38378514 9 -158 9 C-158 8.34 -158 7.68 -158 7 C-155.8673004 5.35144772 -153.74909553 3.85101227 -151.5 2.375 C-150.48981812 1.7094812 -150.48981812 1.7094812 -149.45922852 1.03051758 C-131.85524243 -10.32892817 -113.5303135 -16.40937921 -93 -20 C-92.03360596 -20.1757959 -91.06721191 -20.3515918 -90.0715332 -20.53271484 C-59.85819839 -25.12919548 -25.40127516 -17.10698123 0 0 Z " fill="#5FBDE9" transform="translate(341,111)"/>
<path d="M0 0 C4.0741759 1.54667789 6.34471372 4.45100796 9 7.75 C9.42539062 8.26304687 9.85078125 8.77609375 10.2890625 9.3046875 C12.36906391 11.84407572 14.12927553 14.24255162 15.67675781 17.14599609 C17.77665198 20.32833397 17.77665198 20.32833397 21.48339844 20.77294922 C22.85816128 20.81368433 24.23412445 20.82252353 25.609375 20.8046875 C26.33618469 20.81839386 27.06299438 20.83210022 27.81182861 20.84622192 C30.12518289 20.88350801 32.43638804 20.879809 34.75 20.875 C36.32164811 20.89312818 37.89326781 20.91393127 39.46484375 20.9375 C43.31114918 20.99436196 47.15184138 20.99575258 51 21 C51 28.92 51 36.84 51 45 C27.57 45 4.14 45 -20 45 C-20 51.6 -20 58.2 -20 65 C-2.18 65 15.64 65 34 65 C34 72.92 34 80.84 34 89 C16.18 89 -1.64 89 -20 89 C-20 106.49 -20 123.98 -20 142 C-28.25 142 -36.5 142 -45 142 C-45 102.07 -45 62.14 -45 21 C-35.76 20.67 -26.52 20.34 -17 20 C-10.51330869 14.31383718 -10.51330869 14.31383718 -6.08642578 7.79150391 C-4.352468 4.93222701 -2.19300569 2.51789542 0 0 Z " fill="#172735" transform="translate(267,152)"/>
<path d="M0 0 C0.33 0.66 0.66 1.32 1 2 C0.67 2.66 0.34 3.32 0 4 C-13.86 3.505 -13.86 3.505 -28 3 C-28 42.27 -28 81.54 -28 122 C-20.41 122 -12.82 122 -5 122 C-5 104.18 -5 86.36 -5 68 C12.49 68 29.98 68 48 68 C48 61.4 48 54.8 48 48 C46.39970947 48.00523682 44.79941895 48.01047363 43.15063477 48.01586914 C37.23739171 48.03391114 31.32415111 48.04542907 25.41088867 48.05493164 C22.84708243 48.0599737 20.28327909 48.06680714 17.71948242 48.07543945 C14.04344979 48.08751064 10.36745502 48.09322942 6.69140625 48.09765625 C5.53725723 48.10281754 4.38310822 48.10797882 3.19398499 48.11329651 C1.6024485 48.11340981 1.6024485 48.11340981 -0.02124023 48.11352539 C-0.96055893 48.115746 -1.89987762 48.11796661 -2.86766052 48.12025452 C-5 48 -5 48 -6 47 C-6.08685603 45.43827255 -6.10702219 43.87270656 -6.09765625 42.30859375 C-6.09443359 41.36435547 -6.09121094 40.42011719 -6.08789062 39.44726562 C-6.07951172 38.45404297 -6.07113281 37.46082031 -6.0625 36.4375 C-6.05798828 35.44041016 -6.05347656 34.44332031 -6.04882812 33.41601562 C-6.03700007 30.94395151 -6.02051849 28.47200482 -6 26 C-5.34 26 -4.68 26 -4 26 C-4 32.6 -4 39.2 -4 46 C13.82 46 31.64 46 50 46 C50 53.92 50 61.84 50 70 C32.18 70 14.36 70 -4 70 C-4 87.49 -4 104.98 -4 123 C-12.25 123 -20.5 123 -29 123 C-29 83.07 -29 43.14 -29 2 C-19.76 1.67 -10.52 1.34 -1 1 C-0.67 0.67 -0.34 0.34 0 0 Z " fill="#1E465F" transform="translate(251,171)"/>
<path d="M0 0 C0.99 0.33 1.98 0.66 3 1 C1.35 2.98 -0.3 4.96 -2 7 C-11.24 7 -20.48 7 -30 7 C-30 46.93 -30 86.86 -30 128 C-30.33 128 -30.66 128 -31 128 C-31.75158002 102.43521426 -32.25723921 76.87355917 -32.55761719 51.29956055 C-32.6139453 46.52295725 -32.67760882 41.74647841 -32.74279213 36.96998882 C-32.79254872 33.24619926 -32.83776605 29.52236514 -32.88163376 25.79850197 C-32.90314851 24.03254977 -32.92628775 22.26661658 -32.9510994 20.50070763 C-32.98470004 18.07431185 -33.01199798 15.64792702 -33.03759766 13.22143555 C-33.04897263 12.49926849 -33.0603476 11.77710144 -33.07206726 11.03305054 C-33.08643568 9.35525657 -33.04889415 7.67714293 -33 6 C-32 5 -32 5 -29.13256836 4.88647461 C-27.88096924 4.89171143 -26.62937012 4.89694824 -25.33984375 4.90234375 C-24.34314415 4.90446617 -24.34314415 4.90446617 -23.3263092 4.90663147 C-21.19666101 4.91224482 -19.06711661 4.92479946 -16.9375 4.9375 C-15.49674631 4.94251329 -14.05599097 4.94707649 -12.61523438 4.95117188 C-9.07678898 4.96221855 -5.53840461 4.97949208 -2 5 C-1.34 3.35 -0.68 1.7 0 0 Z " fill="#539DC0" transform="translate(252,166)"/>
<path d="M0 0 C0.66 0.33 1.32 0.66 2 1 C-0.91056389 19.99142936 -16.17254285 43.28394848 -31 55 C-30.67 52.69 -30.34 50.38 -30 48 C-28.35 48 -26.7 48 -25 48 C-25 47.01 -25 46.02 -25 45 C-24.34 45 -23.68 45 -23 45 C-22.34 43.35 -21.68 41.7 -21 40 C-20.34 40 -19.68 40 -19 40 C-19 39.01 -19 38.02 -19 37 C-18.34 37 -17.68 37 -17 37 C-16.67 35.35 -16.34 33.7 -16 32 C-15.34 32 -14.68 32 -14 32 C-14 30.68 -14 29.36 -14 28 C-13.01 28 -12.02 28 -11 28 C-10.87625 27.236875 -10.7525 26.47375 -10.625 25.6875 C-10 23 -10 23 -8 20 C-7.60986284 18.0103005 -7.26797351 16.00980131 -7 14 C-6.01 14 -5.02 14 -4 14 C-3.67 11.69 -3.34 9.38 -3 7 C-2.34 7 -1.68 7 -1 7 C-0.67 4.69 -0.34 2.38 0 0 Z " fill="#7FC1E0" transform="translate(394,268)"/>
<path d="M0 0 C1.73117065 -0.00580078 1.73117065 -0.00580078 3.49731445 -0.01171875 C15.78072478 0.14855409 27.4829687 2.51310251 39.375 5.4375 C39.375 5.7675 39.375 6.0975 39.375 6.4375 C37.72925434 6.46438151 36.08338587 6.48384123 34.4375 6.5 C33.52097656 6.51160156 32.60445313 6.52320312 31.66015625 6.53515625 C29.375 6.4375 29.375 6.4375 28.375 5.4375 C11.12796708 2.874763 -6.24254784 3.21791796 -23.625 3.4375 C-23.625 3.1075 -23.625 2.7775 -23.625 2.4375 C-15.7125416 0.73550441 -8.08845015 0.01901347 0 0 Z " fill="#97CEE6" transform="translate(266.625,89.5625)"/>
<path d="M0 0 C1.98 0.99 3.96 1.98 6 3 C6 3.66 6 4.32 6 5 C6.55171875 5.23460938 7.1034375 5.46921875 7.671875 5.7109375 C10.59325764 7.32848158 12.79574497 9.36450195 15.25 11.625 C16.14203125 12.44226563 17.0340625 13.25953125 17.953125 14.1015625 C18.96632813 15.04128906 18.96632813 15.04128906 20 16 C18.68 16.33 17.36 16.66 16 17 C15.938125 16.38125 15.87625 15.7625 15.8125 15.125 C15.18624774 12.75320779 15.18624774 12.75320779 12.625 11.875 C11.75875 11.58625 10.8925 11.2975 10 11 C9.01 10.34 8.02 9.68 7 9 C7 9.66 7 10.32 7 11 C3.91190305 12.76462683 2.76687864 13 -1 13 C-1 12.34 -1 11.68 -1 11 C-0.319375 10.38125 0.36125 9.7625 1.0625 9.125 C1.701875 8.42375 2.34125 7.7225 3 7 C3.0146239 4.8064655 3.0146239 4.8064655 2 3 C1.34 2.67 0.68 2.34 0 2 C0 1.34 0 0.68 0 0 Z " fill="#74C0E4" transform="translate(345,115)"/>
<path d="M0 0 C1.98 0.99 1.98 0.99 4 2 C4 2.99 4 3.98 4 5 C4.99 5.33 5.98 5.66 7 6 C7 6.66 7 7.32 7 8 C7.61407715 7.99476318 8.2281543 7.98952637 8.86083984 7.98413086 C11.69888241 7.96307871 14.53690846 7.95025137 17.375 7.9375 C18.34050781 7.92912109 19.30601562 7.92074219 20.30078125 7.91210938 C26.59824289 7.89097695 32.74839863 8.23892802 39 9 C39 9.33 39 9.66 39 10 C34.41041127 10.1985843 29.82334732 10.34328733 25.23046875 10.43945312 C23.6704552 10.47955298 22.11073991 10.53405278 20.55175781 10.60351562 C7.59834302 11.1659883 7.59834302 11.1659883 3.60644531 8.25390625 C1.55930223 5.59177779 0 3.42100319 0 0 Z " fill="#5CA3C9" transform="translate(279,163)"/>
<path d="M0 0 C-0.33 0.66 -0.66 1.32 -1 2 C-2.03125 1.9175 -3.0625 1.835 -4.125 1.75 C-8.67530444 2.04356803 -10.30599078 3.46036866 -14 6 C-17.8125 6.6875 -17.8125 6.6875 -21 7 C-21.33 7.33 -21.66 7.66 -22 8 C-23.51928038 8.07179964 -25.04167482 8.08392007 -26.5625 8.0625 C-27.38878906 8.05347656 -28.21507812 8.04445313 -29.06640625 8.03515625 C-29.70449219 8.02355469 -30.34257812 8.01195313 -31 8 C-24.32145786 1.32145786 -9.02877701 -1.88099521 0 0 Z " fill="#7BC2E1" transform="translate(243,94)"/>
<path d="M0 0 C0.99 0.33 1.98 0.66 3 1 C-1.00476936 6.80139522 -1.00476936 6.80139522 -5.41333008 7.68115234 C-6.68587646 7.64973145 -7.95842285 7.61831055 -9.26953125 7.5859375 C-9.95053391 7.57744781 -10.63153656 7.56895813 -11.33317566 7.56021118 C-13.49460485 7.52679302 -15.6522119 7.45155986 -17.8125 7.375 C-19.28314898 7.34488432 -20.75385684 7.31751129 -22.22460938 7.29296875 C-25.81763468 7.22704737 -29.40844394 7.12361723 -33 7 C-32.67 6.34 -32.34 5.68 -32 5 C-22.1 5 -12.2 5 -2 5 C-1.34 3.35 -0.68 1.7 0 0 Z " fill="#60AACF" transform="translate(252,166)"/>
<path d="M0 0 C0.33 0 0.66 0 1 0 C1.16993231 5.013003 1.12322112 8.39968757 -1 13 C-1.33 14.2375 -1.66 15.475 -2 16.75 C-2.33 17.8225 -2.66 18.895 -3 20 C-3.66 20.33 -4.32 20.66 -5 21 C-5.69227032 23.80980673 -5.69227032 23.80980673 -6.125 27.0625 C-6.29257813 28.16722656 -6.46015625 29.27195313 -6.6328125 30.41015625 C-6.75398437 31.26480469 -6.87515625 32.11945313 -7 33 C-7.66 33 -8.32 33 -9 33 C-8.0852838 21.56604754 -4.08438546 10.64547274 0 0 Z " fill="#8CCDE8" transform="translate(142,171)"/>
<path d="M0 0 C1.77045012 -0.05561623 3.54145674 -0.09349478 5.3125 -0.125 C6.29863281 -0.14820313 7.28476563 -0.17140625 8.30078125 -0.1953125 C11.36526532 -0.03351292 13.95700747 0.37314266 16.9375 1 C24.1649626 2.38939878 31.3572306 2.21797697 38.6875 2.125 C40.0826758 2.11494059 41.4778587 2.10582002 42.87304688 2.09765625 C46.2488837 2.07429406 49.62434618 2.04153668 53 2 C53 2.33 53 2.66 53 3 C37.63541062 4.9734335 22.25397566 4.5027481 7 2 C4.66722813 1.6627598 2.33403801 1.32836276 0 1 C0 0.67 0 0.34 0 0 Z " fill="#98C7E1" transform="translate(235,359)"/>
<path d="M0 0 C2.62451821 2.62451821 3.3819779 5.54977791 4.5 9 C4.83100708 10.00897339 4.83100708 10.00897339 5.16870117 11.03833008 C7.28163595 17.62580755 9 24.04854522 9 31 C8.34 31 7.68 31 7 31 C6.74605469 29.96101563 6.49210937 28.92203125 6.23046875 27.8515625 C5.88341854 26.44255892 5.53571825 25.03371537 5.1875 23.625 C5.00735352 22.89563232 4.82720703 22.16626465 4.64160156 21.41479492 C3.43509955 16.58718533 2.09239189 11.83519487 0.515625 7.11328125 C-0.07690453 4.68480795 -0.08723165 2.49046348 0 0 Z " fill="#82C5E3" transform="translate(392,174)"/>
<path d="M0 0 C0 0.66 0 1.32 0 2 C-0.99 2.495 -0.99 2.495 -2 3 C-2.33 3.99 -2.66 4.98 -3 6 C-3.99 6 -4.98 6 -6 6 C-6.33 6.99 -6.66 7.98 -7 9 C-8.43750048 10.24147769 -9.88016789 11.4784426 -11.3671875 12.66015625 C-13.75096965 14.61622629 -15.85251622 16.78935494 -18 19 C-18.66 18.67 -19.32 18.34 -20 18 C-4.39754098 0 -4.39754098 0 0 0 Z " fill="#85C9E5" transform="translate(183,120)"/>
<path d="M0 0 C1.98 0 3.96 0 6 0 C6.33 0.99 6.66 1.98 7 3 C9.35654446 3.83788248 11.57158453 4.43582267 14 5 C16.14611664 5.54054309 18.29193571 6.08226861 20.4375 6.625 C22.29138051 7.0844894 24.14545138 7.54321462 26 8 C25.67 8.99 25.34 9.98 25 11 C19.15727707 10.51310642 15.11694296 8.76296743 10 6 C8.16929319 5.078099 6.33591546 4.16148412 4.5 3.25 C3 2.5 1.5 1.75 0 1 C0 0.67 0 0.34 0 0 Z " fill="#8DC9E4" transform="translate(200,345)"/>
<path d="M0 0 C0.640625 1.85546875 0.640625 1.85546875 1 4 C-0.6436814 5.68933922 -2.3142876 7.35259924 -4 9 C-5.22666041 11.29103889 -6.08934462 13.55560925 -7 16 C-7.66 16 -8.32 16 -9 16 C-9.103125 16.886875 -9.20625 17.77375 -9.3125 18.6875 C-10.01715907 22.0826755 -10.9554566 24.21942098 -13 27 C-13.66 27 -14.32 27 -15 27 C-13.61336194 22.32809637 -11.63808412 18.25025052 -9.1875 14.0625 C-8.83365234 13.45003418 -8.47980469 12.83756836 -8.11523438 12.20654297 C-5.62770255 7.94851377 -2.98665169 3.91998034 0 0 Z " fill="#85C9E1" transform="translate(158,144)"/>
<path d="M0 0 C0 0.33 0 0.66 0 1 C-1.64574566 1.02688151 -3.29161413 1.04634123 -4.9375 1.0625 C-5.85402344 1.07410156 -6.77054687 1.08570312 -7.71484375 1.09765625 C-10 1 -10 1 -11 0 C-12.55753051 -0.22670908 -14.12377359 -0.39435092 -15.69140625 -0.53515625 C-16.63564453 -0.62216797 -17.57988281 -0.70917969 -18.55273438 -0.79882812 C-19.54595703 -0.88583984 -20.53917969 -0.97285156 -21.5625 -1.0625 C-22.55958984 -1.15337891 -23.55667969 -1.24425781 -24.58398438 -1.33789062 C-27.05565702 -1.56258814 -29.52763256 -1.78310351 -32 -2 C-32 -2.33 -32 -2.66 -32 -3 C-21.13882794 -5.17223441 -10.61441864 -2.46378476 0 0 Z " fill="#85C6E6" transform="translate(306,95)"/>
<path d="M0 0 C0.99 0.33 1.98 0.66 3 1 C-6.22551253 13.85421412 -6.22551253 13.85421412 -12 18 C-11.67 15.69 -11.34 13.38 -11 11 C-9.35 11 -7.7 11 -6 11 C-6 10.01 -6 9.02 -6 8 C-5.34 8 -4.68 8 -4 8 C-3.34 6.35 -2.68 4.7 -2 3 C-1.34 3 -0.68 3 0 3 C0 2.01 0 1.02 0 0 Z " fill="#8BCAE7" transform="translate(375,305)"/>
<path d="M0 0 C0.66 0 1.32 0 2 0 C2 0.99 2 1.98 2 3 C2.66 3 3.32 3 4 3 C4 3.66 4 4.32 4 5 C4.99 5.33 5.98 5.66 7 6 C7.74118205 8.31074405 8.40206327 10.64811553 9 13 C9.391875 13.721875 9.78375 14.44375 10.1875 15.1875 C11.23121186 17.51578031 10.69782227 18.60958754 10 21 C8.51361733 18.25384196 7.03718828 15.50245309 5.5625 12.75 C5.14162109 11.97269531 4.72074219 11.19539063 4.28710938 10.39453125 C3.88427734 9.64042969 3.48144531 8.88632812 3.06640625 8.109375 C2.69459229 7.41811523 2.32277832 6.72685547 1.93969727 6.01464844 C1.00925892 4.01985051 0.45699179 2.14807202 0 0 Z " fill="#82C8E5" transform="translate(141,278)"/>
<path d="M0 0 C-1.88795796 1.80063614 -3.78456911 3.59030514 -5.6875 5.375 C-6.48317383 6.13683594 -6.48317383 6.13683594 -7.29492188 6.9140625 C-10.35912035 9.77147457 -12.9106645 11.74057571 -17 13 C-17 12.34 -17 11.68 -17 11 C-16.34 11 -15.68 11 -15 11 C-15 10.01 -15 9.02 -15 8 C-8.25 4 -8.25 4 -6 4 C-6 2.68 -6 1.36 -6 0 C-3 -1 -3 -1 0 0 Z " fill="#8AC4E2" transform="translate(363,324)"/>
<path d="M0 0 C-0.33 0.66 -0.66 1.32 -1 2 C-2.010625 1.95875 -3.02125 1.9175 -4.0625 1.875 C-8.0630683 2.00200217 -11.18257199 2.86891022 -15 4 C-17.9375 4.125 -17.9375 4.125 -20 4 C-13.78066136 -0.14622576 -7.2742768 -1.73950097 0 0 Z " fill="#88C7E3" transform="translate(243,94)"/>
<path d="M0 0 C1.44096586 0.42594588 2.87768712 0.86626633 4.3125 1.3125 C5.11300781 1.55613281 5.91351563 1.79976563 6.73828125 2.05078125 C9.09964573 3.04182023 10.33879993 4.08074943 12 6 C10.68 6.99 9.36 7.98 8 9 C7.34 8.01 6.68 7.02 6 6 C5.01 5.34 4.02 4.68 3 4 C2.01 3.34 1.02 2.68 0 2 C0 1.34 0 0.68 0 0 Z " fill="#88CAE8" transform="translate(322,102)"/>
<path d="M0 0 C7.93396732 -0.24923458 15.2441657 0.29005228 23 2 C23 2.33 23 2.66 23 3 C15.06603268 3.24923458 7.7558343 2.70994772 0 1 C0 0.67 0 0.34 0 0 Z " fill="#8EC9E9" transform="translate(235,359)"/>
<path d="M0 0 C0.66 0.33 1.32 0.66 2 1 C1.37321829 4.66172475 0.35548154 7.8818995 -1.0625 11.3125 C-1.42472656 12.19550781 -1.78695313 13.07851563 -2.16015625 13.98828125 C-2.43730469 14.65214844 -2.71445312 15.31601562 -3 16 C-3.33 16 -3.66 16 -4 16 C-4.125 9.25 -4.125 9.25 -3 7 C-2.34 7 -1.68 7 -1 7 C-0.67 4.69 -0.34 2.38 0 0 Z " fill="#8EC8E7" transform="translate(394,268)"/>
<path d="M0 0 C0.33 0.66 0.66 1.32 1 2 C-1.45614035 7 -1.45614035 7 -3 9 C-3.99 9.33 -4.98 9.66 -6 10 C-6.99 11.485 -6.99 11.485 -8 13 C-8.66 12.67 -9.32 12.34 -10 12 C-6.7 8.04 -3.4 4.08 0 0 Z " fill="#1C435E" transform="translate(262,158)"/>
<path d="M0 0 C0.33 0.99 0.66 1.98 1 3 C1.66 3 2.32 3 3 3 C3.33951619 4.56116819 3.67132544 6.12401338 4 7.6875 C4.185625 8.55761719 4.37125 9.42773438 4.5625 10.32421875 C4.98972047 12.93712964 5.07616201 15.35813038 5 18 C3.03723564 15.05585347 2.28266038 12.94101364 1.375 9.5625 C0.98441406 8.14130859 0.98441406 8.14130859 0.5859375 6.69140625 C0 4 0 4 0 0 Z " fill="#96CFE8" transform="translate(134,253)"/>
<path d="M0 0 C0.99 0.33 1.98 0.66 3 1 C3 1.66 3 2.32 3 3 C3.99 3.33 4.98 3.66 6 4 C7.6875 5.5625 7.6875 5.5625 9 7 C8.34 8.32 7.68 9.64 7 11 C5.83051998 9.35616456 4.6644855 7.70987731 3.5 6.0625 C2.8503125 5.14597656 2.200625 4.22945313 1.53125 3.28515625 C0 1 0 1 0 0 Z " fill="#8BCCE7" transform="translate(154,302)"/>
<path d="M0 0 C2.02196167 2.02196167 2.67551358 3.25864486 3.6875 5.875 C3.95949219 6.55304688 4.23148437 7.23109375 4.51171875 7.9296875 C5.07336741 10.31107782 4.76694846 11.70430191 4 14 C-0.59225513 4.58997722 -0.59225513 4.58997722 0 0 Z " fill="#90CEE5" transform="translate(392,174)"/>
<path d="M0 0 C3.33193619 2.69728168 4.60371996 6.02060187 6 10 C5.6875 12.4375 5.6875 12.4375 5 14 C4.690625 13.360625 4.38125 12.72125 4.0625 12.0625 C3.1654837 10.06389179 3.1654837 10.06389179 2 9 C1.95936168 7.33382885 1.957279 5.66611905 2 4 C1.34 4 0.68 4 0 4 C0 2.68 0 1.36 0 0 Z " fill="#91C6E4" transform="translate(386,161)"/>
<path d="M0 0 C0.6484375 1.83984375 0.6484375 1.83984375 1 4 C-1.375 6.5625 -1.375 6.5625 -4 9 C-4.33 9.99 -4.66 10.98 -5 12 C-5.66 12 -6.32 12 -7 12 C-5.44298069 7.32894208 -2.91552627 3.91294315 0 0 Z " fill="#96CFE8" transform="translate(158,144)"/>
<path d="M0 0 C4.75 1.875 4.75 1.875 7 3 C7 3.66 7 4.32 7 5 C8.32 5.33 9.64 5.66 11 6 C8 7 8 7 4.9375 5.8125 C2.0126988 4.00783543 1.09351553 3.17119503 0 0 Z " fill="#96C8E4" transform="translate(334,108)"/>
<path d="M0 0 C0 0.99 0 1.98 0 3 C-2.31 3.66 -4.62 4.32 -7 5 C-7 5.33 -7 5.66 -7 6 C-8.65 6 -10.3 6 -12 6 C-9.1490916 2.47828963 -4.56486714 0 0 0 Z " fill="#95D0EA" transform="translate(212,102)"/>
<path d="M0 0 C0.99 0.495 0.99 0.495 2 1 C2 1.66 2 2.32 2 3 C2.66 3.33 3.32 3.66 4 4 C5.6875 6.3125 5.6875 6.3125 7 9 C6.58203125 11.16796875 6.58203125 11.16796875 6 13 C4.99491199 11.21118264 3.99607264 9.41885304 3 7.625 C2.1646875 6.12839844 2.1646875 6.12839844 1.3125 4.6015625 C0 2 0 2 0 0 Z " fill="#9BD7ED" transform="translate(145,286)"/>
<path d="M0 0 C4.875 4.625 4.875 4.625 6 8 C5.34 8 4.68 8 4 8 C4 7.34 4 6.68 4 6 C2.68 6 1.36 6 0 6 C-0.33 6.66 -0.66 7.32 -1 8 C-0.67 5.36 -0.34 2.72 0 0 Z " fill="#83C7E3" transform="translate(374,143)"/>
<path d="M0 0 C2.97 0.495 2.97 0.495 6 1 C6.66 3.31 7.32 5.62 8 8 C6.85073734 7.04578192 5.70569459 6.08647955 4.5625 5.125 C3.92441406 4.59132813 3.28632813 4.05765625 2.62890625 3.5078125 C1 2 1 2 0 0 Z " fill="#8ACFE5" transform="translate(167,319)"/>
<path d="M0 0 C0.33 0.66 0.66 1.32 1 2 C-0.4726862 5.27263601 -1.42695432 6.72014048 -4.6875 8.3125 C-5.450625 8.539375 -6.21375 8.76625 -7 9 C-2.85714286 2.57142857 -2.85714286 2.57142857 0 0 Z " fill="#97D3EC" transform="translate(170,130)"/>
<path d="M0 0 C0 0.99 0 1.98 0 3 C-1.2065625 3.433125 -1.2065625 3.433125 -2.4375 3.875 C-5.1326468 4.73262568 -5.1326468 4.73262568 -6 7 C-6.99 7 -7.98 7 -9 7 C-9 6.34 -9 5.68 -9 5 C-7.5390625 3.7109375 -7.5390625 3.7109375 -5.625 2.375 C-4.99851563 1.92898437 -4.37203125 1.48296875 -3.7265625 1.0234375 C-2 0 -2 0 0 0 Z " fill="#98D5E9" transform="translate(192,113)"/>
<path d="M0 0 C0.8971875 0.309375 0.8971875 0.309375 1.8125 0.625 C1.1525 1.285 0.4925 1.945 -0.1875 2.625 C-1.1775 2.625 -2.1675 2.625 -3.1875 2.625 C-3.1875 3.285 -3.1875 3.945 -3.1875 4.625 C-4.5075 4.955 -5.8275 5.285 -7.1875 5.625 C-7.1875 4.965 -7.1875 4.305 -7.1875 3.625 C-6.5275 3.625 -5.8675 3.625 -5.1875 3.625 C-5.1875 2.965 -5.1875 2.305 -5.1875 1.625 C-2.1875 -0.375 -2.1875 -0.375 0 0 Z " fill="#91CDE3" transform="translate(344.1875,337.375)"/>
<path d="M0 0 C1.22589844 0.29197266 1.22589844 0.29197266 2.4765625 0.58984375 C3.41628906 0.82380859 3.41628906 0.82380859 4.375 1.0625 C4.375 2.0525 4.375 3.0425 4.375 4.0625 C4.045 3.4025 3.715 2.7425 3.375 2.0625 C1.7353125 2.124375 1.7353125 2.124375 0.0625 2.1875 C-3.625 2.0625 -3.625 2.0625 -6.625 0.0625 C-3.99249612 -1.25375194 -2.82320944 -0.68563658 0 0 Z " fill="#8BCDEB" transform="translate(310.625,96.9375)"/>
<path d="M0 0 C1.98 0.99 1.98 0.99 4 2 C4 2.99 4 3.98 4 5 C4.66 5.33 5.32 5.66 6 6 C5.67 6.99 5.34 7.98 5 9 C4.16094435 7.87926138 3.32892169 6.75325453 2.5 5.625 C2.0359375 4.99851563 1.571875 4.37203125 1.09375 3.7265625 C0 2 0 2 0 0 Z " fill="#5BA8CD" transform="translate(279,163)"/>
<path d="M0 0 C2.31 1.98 4.62 3.96 7 6 C5.68 6.33 4.36 6.66 3 7 C2.67 5.68 2.34 4.36 2 3 C1.34 3 0.68 3 0 3 C0 2.01 0 1.02 0 0 Z " fill="#90D0E9" transform="translate(358,125)"/>
<path d="M0 0 C1.65 0 3.3 0 5 0 C5 0.66 5 1.32 5 2 C5.66 2.33 6.32 2.66 7 3 C7 3.66 7 4.32 7 5 C3.34683329 3.75023244 2.21934164 3.32901247 0 0 Z " fill="#87C6E6" transform="translate(188,337)"/>
<path d="M0 0 C2.475 0.495 2.475 0.495 5 1 C5.33 1.99 5.66 2.98 6 4 C6.66 4.33 7.32 4.66 8 5 C5 5 5 5 2.3125 2.5 C1.549375 1.675 0.78625 0.85 0 0 Z " fill="#96D0EA" transform="translate(175,327)"/>
<path d="M0 0 C1.65 1.32 3.3 2.64 5 4 C4.67 4.66 4.34 5.32 4 6 C2.35 6 0.7 6 -1 6 C-0.67 4.02 -0.34 2.04 0 0 Z " fill="#204862" transform="translate(274,159)"/>
<path d="M0 0 C1.32 0.66 2.64 1.32 4 2 C4 2.33 4 2.66 4 3 C3.195625 3.12375 2.39125 3.2475 1.5625 3.375 C0.2940625 3.684375 0.2940625 3.684375 -1 4 C-1.33 4.66 -1.66 5.32 -2 6 C-2.66 6 -3.32 6 -4 6 C-2.84826645 3.53199953 -1.95216435 1.95216435 0 0 Z " fill="#1B4760" transform="translate(267,152)"/>
<path d="M0 0 C0.66 0.33 1.32 0.66 2 1 C0.8125 3 0.8125 3 -1 5 C-3.6875 5.25 -3.6875 5.25 -6 5 C-4.06745228 2.9754262 -2.36841312 1.57894208 0 0 Z " fill="#8FCDE9" transform="translate(198,108)"/>
</svg>
